<svg width="26" height="26" viewBox="0 0 26 26" fill="none" xmlns="http://www.w3.org/2000/svg">
<path d="M11.8 6C11.8 9.20325 9.20325 11.8 6 11.8C2.79675 11.8 0.2 9.20325 0.2 6C0.2 2.79675 2.79675 0.2 6 0.2C9.20325 0.2 11.8 2.79675 11.8 6Z" stroke="black" stroke-width="0.4"/>
<path d="M6 11.2C8.87188 11.2 11.2 8.87188 11.2 6C11.2 3.12812 8.87188 0.8 6 0.8C3.12812 0.8 0.8 3.12812 0.8 6C0.8 8.87188 3.12812 11.2 6 11.2Z" stroke="black" stroke-width="0.4"/>
<path fill-rule="evenodd" clip-rule="evenodd" d="M6.3033 6.30327L19.9802 9.3736L14.1819 12.3887L21.342 19.5488L19.2207 21.6702L12.1642 14.6137L9.37363 19.9802L6.3033 6.30327Z" fill="black"/>
</svg>
